# xmcd
#
# Track frame offsets: 
#        150
#        37519
#        72345
#        113766
#        146746
#        186088
#        224004
#        256822
#        273079
#        292465
#        314218
#        335589
#
# Disc length: 4698 seconds
#
# Revision: 0
# Processed by: cddbd v1.5.2PL0 Copyright (c) Steve Scherf et al.
# Submitted via: ExactAudioCopy v1.0b3
#
DISCID=c512580c
DTITLE=Various Artist - Lost In Trance Vol. 1 - CD 1
DYEAR=1900
DGENRE=
TTITLE0=Lost Witness Vs. Sassot - Whatever (Original)
TTITLE1=Filo and Peri Feat. Eric Lumiere - Anthem (Original Vox Mix)
TTITLE2=Will B - Luz Del Sol (Will B's NJB Remix)
TTITLE3=Mike Foyle - Firefly (Original Mix)
TTITLE4=Lowell Hales - Move Me (Kaste Rmx)
TTITLE5=Majai - Lightwave (Mike Foyle Rmx)
TTITLE6=Marninx - Aire Azul (Estiva Pres. Sunover Rmx)
TTITLE7=Orjan Nilsen Pres. O&R - Beat Design
TTITLE8=K-De - Soulfly
TTITLE9=Mark Norman - Ventura (ATB Rmx)
TTITLE10=Sound Fiction Feat. Kate Cameron - Alive (Matias Lehtola Rmx)
TTITLE11=Kirsty Hawkshaw Meets Tenisha - Outsiders (Cosmic Gate Rmx)
EXTD=
EXTT0=
EXTT1=
EXTT2=
EXTT3=
EXTT4=
EXTT5=
EXTT6=
EXTT7=
EXTT8=
EXTT9=
EXTT10=
EXTT11=
PLAYORDER=
